<svg width="256" height="256" xmlns="http://www.w3.org/2000/svg" enable-background="new 0 0 91.5 97.6" xml:space="preserve" version="1.1">

 <metadata>image/svg+xmlOpenclipartBlack cogwheels2013-09-14T15:51:34Black cogwheelshttps://openclipart.org/detail/183435/black-cogwheels-by-liftarn-183435liftarnblackcogwheelcogwheelsgeargears</metadata>
 <g>
  <title>Layer 1</title>
  <g stroke="null">
   <path stroke="null" d="m132.0839,253.0174c-49.3602,-2.88373 -88.71901,-42.31422 -91.51274,-91.67943c0,-48.34006 70.84319,-130.68485 91.51274,-158.35537c20.66954,27.67052 83.34493,109.84862 83.34493,158.18868s-38.67205,91.84612 -83.34493,91.84612z"/>
  </g>
  <g stroke="null" id="svg_6">
   <path stroke="null" fill="#ffffff" id="svg_1" d="m187.53353,116.52519l0,-0.29327c-4.39903,-5.86537 -9.67787,-10.85094 -15.83651,-15.54324l0,0.29327c-4.98557,3.81249 -9.97113,7.91825 -14.66343,12.02401c-2.05288,-1.17307 -3.81249,-2.05288 -5.5721,-2.93269c-2.34615,-1.17307 -4.6923,-2.34615 -7.33172,-2.93269c-0.87981,-0.29327 -1.75961,-0.58654 -2.63942,-0.58654c-0.58654,-6.45191 -1.17307,-12.90382 -2.05288,-19.35573c-2.93269,-0.58654 -5.86537,-0.58654 -9.09133,-0.87981l-4.6923,0c-2.93269,0.29327 -5.5721,0.29327 -8.21152,0.87981c-0.87981,6.15864 -1.46634,12.61055 -1.75961,19.06246c-1.17307,0 -2.05288,0.29327 -3.22596,0.58654c-0.29327,0 -0.58654,0 -0.87981,0.29327c-2.34615,0.58654 -4.6923,1.75961 -7.03845,2.93269c-2.05288,0.87981 -3.81249,1.75961 -5.5721,2.93269c-4.98557,-4.10576 -9.67787,-7.91825 -14.66343,-12.02401l-0.29327,-0.29327c-1.17307,0.87981 -2.34615,1.75961 -3.22596,2.63942c-2.05288,1.46634 -3.81249,3.22596 -5.27884,4.98557c-2.63942,2.34615 -4.6923,5.27884 -7.03845,8.21152l0.29327,0c3.81249,4.98557 7.91825,9.67787 12.02401,14.66343c-1.17307,1.75961 -2.34615,3.81249 -3.22596,5.5721c-1.17307,2.34615 -2.05288,4.98557 -2.63942,7.33172c-0.58654,1.17307 -0.87981,2.34615 -0.87981,3.22596c-6.45191,0.58654 -12.90382,1.17307 -19.06246,2.05288c-0.58654,2.93269 -0.87981,5.86537 -0.87981,9.09133c0,4.39903 0.29327,8.79806 1.17307,12.90382c6.15864,0.58654 12.31728,1.17307 18.76919,1.75961c0,1.17307 0.29327,2.34615 0.87981,3.22596c0.58654,2.63942 1.46634,4.98557 2.63942,7.62498c1.17307,2.05288 2.05288,4.10576 3.51922,5.86537c-4.10576,4.98557 -8.21152,9.67787 -12.02401,14.66343c4.39903,6.15864 9.67787,11.43748 15.83651,15.83651l0,-0.29327c4.6923,-3.81249 9.67787,-7.91825 14.37016,-12.02401l0.29327,0c1.46634,0.87981 3.22596,1.75961 4.6923,2.63942c2.63942,1.17307 5.5721,2.34615 8.21152,2.93269c1.17307,0.29327 2.05288,0.58654 2.93269,0.87981c0.58654,6.15864 1.17307,12.61055 2.05288,19.06246c2.63942,0.29327 5.27884,0.58654 8.21152,0.58654l4.39903,0c3.22596,0 6.45191,-0.29327 9.67787,-0.87981c0.58654,-6.15864 1.17307,-12.61055 1.75961,-19.06246c0.87981,-0.29327 1.75961,-0.58654 2.63942,-0.87981c2.63942,-0.58654 4.98557,-1.46634 7.33172,-2.63942c2.05288,-0.87981 4.10576,-2.05288 6.15864,-3.51922c0,0.29327 0,0.29327 0.29327,0.29327c4.6923,4.10576 9.67787,8.21152 14.66343,12.02401c0.87981,-0.58654 1.75961,-1.17307 2.93269,-2.05288c1.75961,-1.46634 3.51922,-3.22596 4.98557,-4.98557c2.63942,-2.63942 5.27884,-5.5721 7.62498,-8.79806c-4.10576,-4.98557 -8.21152,-9.97113 -12.31728,-14.66343l0,-0.29327c0.87981,-1.46634 1.75961,-3.22596 2.63942,-4.98557c0.87981,-2.34615 2.05288,-4.6923 2.63942,-7.03845c0,-0.29327 0,-0.58654 0.29327,-0.58654c0,-1.17307 0.29327,-2.05288 0.58654,-2.63942c6.45191,-0.58654 12.90382,-1.17307 19.06246,-1.75961c0.58654,-2.93269 0.58654,-5.86537 0.87981,-8.79806l0,-4.98557c-0.29327,-2.93269 -0.29327,-5.86537 -0.87981,-8.79806c-6.15864,-0.58654 -12.61055,-1.17307 -19.06246,-1.75961c-0.29327,-0.87981 -0.58654,-1.75961 -0.58654,-2.63942c-0.87981,-2.63942 -1.75961,-5.27884 -2.93269,-7.91825c-0.87981,-1.75961 -2.05288,-3.81249 -2.93269,-5.5721c3.81249,-4.6923 7.91825,-9.67787 12.02401,-14.66343zm-78.30273,24.3413c5.27884,-5.5721 11.73075,-8.21152 19.06246,-7.91825c7.62498,-0.29327 13.78363,2.34615 19.35573,7.91825c5.27884,5.27884 7.91825,11.73075 7.91825,19.06246c0,7.62498 -2.63942,13.78363 -7.91825,19.35573c-5.5721,5.27884 -11.73075,7.91825 -19.35573,7.91825c-7.33172,0 -13.78363,-2.63942 -19.06246,-7.91825c-5.27884,-5.5721 -7.91825,-11.73075 -7.91825,-19.35573c0,-7.33172 2.63942,-13.78363 7.91825,-19.06246z"/>
   <path stroke="null" fill="#ffffff" id="svg_2" d="m128,136.90737c-6.45191,0 -11.73075,2.34615 -16.42304,6.74518c-4.39903,4.6923 -6.74518,9.97113 -6.74518,16.42304s2.34615,11.73075 6.74518,16.42304c4.6923,4.6923 9.97113,7.03845 16.42304,7.03845s11.73075,-2.34615 16.42304,-7.03845c4.6923,-4.6923 6.74518,-9.97113 6.74518,-16.42304s-2.05288,-11.73075 -6.74518,-16.42304c-4.6923,-4.39903 -9.97113,-6.74518 -16.42304,-6.74518zm-12.31728,10.85094c3.51922,-3.22596 7.62498,-4.98557 12.31728,-4.98557s8.79806,1.75961 12.31728,4.98557c3.51922,3.51922 4.98557,7.33172 4.98557,12.31728s-1.46634,9.09133 -4.98557,12.31728c-3.51922,3.51922 -7.62498,5.27884 -12.31728,5.27884s-8.79806,-1.75961 -12.31728,-5.27884c-3.22596,-3.22596 -4.98557,-7.33172 -4.98557,-12.31728c0,-4.6923 1.75961,-8.79806 4.98557,-12.31728z"/>
  </g>
 </g>
</svg>